# xmcd
#
# Track frame offsets:
# 150
# 23830
# 45382
# 62062
# 98198
# 120622
# 141270
# 170782
# 188166
# 203214
# 229142
# 251582
#
# Disc length: 3741 seconds
#
# Revision: 0
# Processed by: cddbd v1.5PL3 Copyright (c) Steve Scherf et al.
# Submitted via: Audion 3.0.2 (http://www.panic.com/audion/)
#
DISCID=a80e9b0c
DTITLE=Gerard Schwarz - Turn of the Century Cornet Favorites
DYEAR=1900
DGENRE=
TTITLE0=Three Kings
TTITLE1=Mephisto Masque
TTITLE2=Lullaby
TTITLE3=Variations on Norma
TTITLE4=Neptunes Court
TTITLE5=Side Partners
TTITLE6=Three Aces
TTITLE7=Pleasant Moments
TTITLE8=Lake of Bays
TTITLE9=Josephine
TTITLE10=Southern Cross
TTITLE11=Hungarian Melodies
EXTD=
EXTT0=
EXTT1=
EXTT2=
EXTT3=
EXTT4=
EXTT5=
EXTT6=
EXTT7=
EXTT8=
EXTT9=
EXTT10=
EXTT11=
PLAYORDER=
